<?xml version="1.0" encoding="utf-8"?>
<svg xmlns="http://www.w3.org/2000/svg" xml:space="preserve" width="201" height="200" overflow="visible" version="1.0">
  <path fill="#44B9BF" d="M0 0h201v200H0z"/>
  <path fill="#44B9BF" d="M101 75c13.81 0 25 11.19 25 25s-11.19 25-25 25-25-11.19-25-25 11.19-25 25-25z"/>
  <path fill="#E32322" d="m65.64 135.36.01-.011C74.7 144.4 87.2 150 101 150s26.3-5.6 35.35-14.65l.011.011 17.67 17.67c-29.29 29.29-76.771 29.29-106.06 0L65.64 135.36zM151 100h-25c0-13.81-11.19-25-25-25V50c13.8 0 26.3 5.6 35.35 14.65S151 86.2 151 100z"/>
  <path fill="#FFD204" d="M154.03 46.97c29.29 29.29 29.29 76.77 0 106.06l-17.67-17.67-.011-.011C145.4 126.3 151 113.8 151 100s-5.6-26.3-14.65-35.35l.011-.01 17.669-17.67zM101 50v25c-13.81 0-25 11.19-25 25H51c0-13.8 5.6-26.3 14.65-35.35S87.2 50 101 50z"/>
  <path fill="#228B2E" d="M101 125v25c-13.8 0-26.3-5.6-35.35-14.65S51 113.8 51 100h25c0 13.81 11.19 25 25 25zm53.03-78.03-17.67 17.67-.011.01C127.3 55.6 114.8 50 101 50s-26.3 5.6-35.35 14.65l-.01-.01-17.67-17.67c29.29-29.29 76.77-29.29 106.06 0z"/>
  <path fill="#4682B4" d="M126 100h25c0 13.8-5.6 26.3-14.65 35.35S114.8 150 101 150v-25c13.81 0 25-11.19 25-25zm-60.35 35.35-.01.011-17.67 17.67c-29.29-29.29-29.29-76.771 0-106.06l17.67 17.67.01.01C56.6 73.7 51 86.2 51 100s5.6 26.3 14.65 35.35z"/>
  <g fill="none" stroke="#000">
    <circle cx="101" cy="100" r="74.996"/>
    <path d="M151 100c0 13.8-5.6 26.3-14.65 35.35S114.8 150 101 150s-26.3-5.6-35.35-14.65S51 113.8 51 100s5.6-26.3 14.65-35.35S87.2 50 101 50s26.3 5.6 35.35 14.65S151 86.2 151 100z"/>
    <path d="M126 100c0 13.81-11.19 25-25 25s-25-11.19-25-25 11.19-25 25-25 25 11.19 25 25zm-25-50v25m25 25h25m-50 25v25m-25-50H51m-3.03-53.03 17.67 17.67m70.72 0 17.67-17.67m-17.67 88.39 17.67 17.67m-88.39-17.67-17.67 17.67"/>
  </g>
</svg>