<?xml version="1.0" encoding="UTF-8" standalone="no"?>
<!-- Created with Inkscape (http://www.inkscape.org/) -->
<svg
   xmlns:dc="http://purl.org/dc/elements/1.1/"
   xmlns:cc="http://web.resource.org/cc/"
   xmlns:rdf="http://www.w3.org/1999/02/22-rdf-syntax-ns#"
   xmlns:svg="http://www.w3.org/2000/svg"
   xmlns="http://www.w3.org/2000/svg"
   xmlns:sodipodi="http://sodipodi.sourceforge.net/DTD/sodipodi-0.dtd"
   xmlns:inkscape="http://www.inkscape.org/namespaces/inkscape"
   version="1.0"
   width="201"
   height="200"
   viewBox="0 0 201 200"
   id="Layer_1"
   xml:space="preserve"
   sodipodi:version="0.32"
   inkscape:version="0.45"
   sodipodi:docname="4CT Non-Counterexample 2.svg"
   inkscape:output_extension="org.inkscape.output.svg.inkscape"
   sodipodi:docbase="C:\Documents and Settings\JJB\My Documents\My Pictures\Electronics\Illustrations\Maths"
   sodipodi:modified="true"><metadata
   id="metadata29"><rdf:RDF><cc:Work
       rdf:about=""><dc:format>image/svg+xml</dc:format><dc:type
         rdf:resource="http://purl.org/dc/dcmitype/StillImage" /></cc:Work></rdf:RDF></metadata><sodipodi:namedview
   inkscape:window-height="480"
   inkscape:window-width="640"
   inkscape:pageshadow="2"
   inkscape:pageopacity="0.0"
   guidetolerance="10.0"
   gridtolerance="10.0"
   objecttolerance="10.0"
   borderopacity="1.0"
   bordercolor="#666666"
   pagecolor="#ffffff"
   id="base" /><defs
   id="defs2544" />
<rect
   width="201"
   height="200"
   x="0"
   y="0"
   style="fill:#44b9bf"
   id="rect2496" />
<g
   id="XMLID_1_">
	<g
   id="g2499">
		<path
   d="M 101,75 C 114.81,75 126,86.19 126,100 C 126,113.81 114.81,125 101,125 C 87.19,125 76,113.81 76,100 C 76,86.19 87.19,75 101,75 z "
   style="fill:#228b2e"
   id="path2501" />
		<path
   d="M 65.64,135.36 L 65.65,135.349 C 74.7,144.4 87.2,150 101,150 C 114.8,150 127.3,144.4 136.35,135.35 L 136.361,135.361 L 154.031,153.031 C 124.741,182.321 77.26,182.321 47.971,153.031 L 65.64,135.36 z "
   style="fill:#228b2e"
   id="path2503" />
		<path
   d="M 151,100 L 126,100 C 126,86.19 114.81,75 101,75 L 101,50 C 114.8,50 127.3,55.6 136.35,64.65 C 145.4,73.7 151,86.2 151,100 z "
   style="fill:#44b9bf"
   id="path2505" />
		<path
   d="M 154.03,46.97 C 183.32,76.26 183.32,123.74 154.03,153.03 L 136.36,135.36 L 136.349,135.349 C 145.4,126.3 151,113.8 151,100 C 151,86.2 145.4,73.7 136.35,64.65 L 136.361,64.64 L 154.03,46.97 z "
   style="fill:#ffd204"
   id="path2507" />
		<path
   d="M 101,50 L 101,75 C 87.19,75 76,86.19 76,100 L 51,100 C 51,86.2 56.6,73.7 65.65,64.65 C 74.7,55.6 87.2,50 101,50 z "
   style="fill:#ffd204"
   id="path2509" />
		<path
   d="M 101,125 L 101,150 C 87.2,150 74.7,144.4 65.65,135.35 C 56.6,126.3 51,113.8 51,100 L 76,100 C 76,113.81 87.19,125 101,125 z "
   style="fill:#44b9bf"
   id="path2511" />
		<path
   d="M 154.03,46.97 L 136.36,64.64 L 136.349,64.65 C 127.3,55.6 114.8,50 101,50 C 87.2,50 74.7,55.6 65.65,64.65 L 65.64,64.64 L 47.97,46.97 C 77.26,17.68 124.74,17.68 154.03,46.97 z "
   style="fill:#228b2e"
   id="path2513" />
		<path
   d="M 126,100 L 151,100 C 151,113.8 145.4,126.3 136.35,135.35 C 127.3,144.4 114.8,150 101,150 L 101,125 C 114.81,125 126,113.81 126,100 z "
   style="fill:#4682b4;fill-opacity:1"
   id="path2515" />
		<path
   d="M 65.65,135.35 L 65.64,135.361 L 47.97,153.031 C 18.68,123.741 18.68,76.26 47.97,46.971 L 65.64,64.641 L 65.65,64.651 C 56.6,73.7 51,86.2 51,100 C 51,113.8 56.6,126.3 65.65,135.35 z "
   style="fill:#4682b4;fill-opacity:1"
   id="path2517" />
	</g>
	<g
   id="g2519">
		<circle
   cx="101"
   cy="100"
   r="74.996002"
   style="fill:none;stroke:#000000"
   id="circle2521" />
		<path
   d="M 151,100 C 151,113.8 145.4,126.3 136.35,135.35 C 127.3,144.4 114.8,150 101,150 C 87.2,150 74.7,144.4 65.65,135.35 C 56.6,126.3 51,113.8 51,100 C 51,86.2 56.6,73.7 65.65,64.65 C 74.7,55.6 87.2,50 101,50 C 114.8,50 127.3,55.6 136.35,64.65 C 145.4,73.7 151,86.2 151,100 z "
   style="fill:none;stroke:#000000"
   id="path2523" />
		<path
   d="M 126,100 C 126,113.81 114.81,125 101,125 C 87.19,125 76,113.81 76,100 C 76,86.19 87.19,75 101,75 C 114.81,75 126,86.19 126,100 z "
   style="fill:none;stroke:#000000"
   id="path2525" />
		<line
   fill="none"
   stroke="#000000"
   x1="101"
   y1="50"
   x2="101"
   y2="75"
   id="line2527"
   style="fill:none;stroke:#000000" />
		<line
   fill="none"
   stroke="#000000"
   x1="126"
   y1="100"
   x2="151"
   y2="100"
   id="line2529"
   style="fill:none;stroke:#000000" />
		<line
   fill="none"
   stroke="#000000"
   x1="101"
   y1="125"
   x2="101"
   y2="150"
   id="line2531"
   style="fill:none;stroke:#000000" />
		<line
   fill="none"
   stroke="#000000"
   x1="76"
   y1="100"
   x2="51"
   y2="100"
   id="line2533"
   style="fill:none;stroke:#000000" />
		<line
   fill="none"
   stroke="#000000"
   x1="47.970001"
   y1="46.970001"
   x2="65.639999"
   y2="64.639999"
   id="line2535"
   style="fill:none;stroke:#000000" />
		<line
   fill="none"
   stroke="#000000"
   x1="136.36"
   y1="64.639999"
   x2="154.03"
   y2="46.970001"
   id="line2537"
   style="fill:none;stroke:#000000" />
		<line
   fill="none"
   stroke="#000000"
   x1="136.36"
   y1="135.36"
   x2="154.03"
   y2="153.03"
   id="line2539"
   style="fill:none;stroke:#000000" />
		<line
   fill="none"
   stroke="#000000"
   x1="65.639999"
   y1="135.36"
   x2="47.970001"
   y2="153.03"
   id="line2541"
   style="fill:none;stroke:#000000" />
	</g>
</g>
</svg>