<svg xmlns="http://www.w3.org/2000/svg" viewBox="-220 -220 440 440" fill="#c6c" filter="url(#f)">
 <defs>
  <filter id="filter_shadow" x="-30%" width="160%" y="-20%" height="150%">
   <feOffset in="sourceAlpha" dy="9"/>
   <feGaussianBlur stdDeviation="10"/>
  </filter>
  <radialGradient id="grad_curvature">
   <stop offset="0%" stop-opacity="0%"/>
   <stop offset="49%" stop-opacity="0%"/>
   <stop offset="49%" stop-opacity="50%"/>
   <stop offset="60%" stop-opacity="20%"/>
   <stop offset="75%" stop-opacity="0%"/>
   <stop offset="90%" stop-opacity="20%"/>
   <stop offset="100%" stop-opacity="40%"/>
  </radialGradient>
 </defs>
 <circle r="150" fill="none" stroke="#000000" stroke-width="90" filter="url(#filter_shadow)"/>
 <path id="c" d="M50-194q-50-6-87,51a150,150 0 0 0-99,85q-23-72 15-102A200,200 0 0 1 50-194M99,0q0,25 34,65a150,150 0 0 0 0-130q-54,2-70-12A99,99 0 0 1 99,0"/>
 <use href="#c" fill="#f66" transform="rotate(51.4)"/>
 <use href="#c" fill="#f90" transform="rotate(102.9)"/>
 <use href="#c" fill="#cc0" transform="rotate(154.3)"/>
 <use href="#c" fill="#0c0" transform="rotate(205.8)"/>
 <use href="#c" fill="#09f" transform="rotate(257.2)"/>
 <use href="#c" fill="#66f" transform="rotate(308.6)"/>
 <g id="e">
  <path id="d" d="M101,0c-5-60 60-160-51-193" fill="none" stroke="#000" stroke-dasharray="1,4"/>
  <use href="#d" transform="rotate(51)"/>
  <use href="#d" transform="rotate(103)"/>
 </g>
 <use href="#e" transform="rotate(154)"/>
 <use href="#d" transform="rotate(309)"/>
 <circle r="201" fill="url(#grad_curvature)"/>
</svg>
