<?xml version="1.0" encoding="utf-8"?>
<!DOCTYPE svg PUBLIC "-//W3C//DTD SVG 1.1//EN" "http://www.w3.org/Graphics/SVG/1.1/DTD/svg11.dtd">
<svg version="1.1" xmlns="http://www.w3.org/2000/svg" xmlns:xlink="http://www.w3.org/1999/xlink" width="100%" height="100%" viewBox="-85 -255 768 384">
 <title>visual proof mutually touching solids</title>
 <desc>Proof without words that the number of colours needed to fill three-dimensional regions so that no touching pair has different colours is unbounded, drawn by CMG Lee.</desc>
 <style type="text/css">
.left  { filter:url(#filter_left); }
.right { filter:url(#filter_right); }
 </style>
 <defs>
  <filter id="filter_left">
   <feColorMatrix type="matrix" values="0.7,0,0,0,0 0,0.7,0,0,0 0,0,0.7,0,0 0,0,0,1,0"/>
  </filter>
  <filter id="filter_right">
   <feColorMatrix type="matrix" values="0.5,0,0,0,0 0,0.5,0,0,0 0,0,0.5,0,0 0,0,0,1,0"/>
  </filter>
  <filter id="filter_shadow" x="-50%" y="-50%" width="200%" height="200%">
   <feGaussianBlur in="SourceAlpha" stdDeviation="2"/>
   <feOffset dx="-1.5" dy="2"/>
   <feMorphology operator="erode" radius="2"/>
   <feBlend in="SourceGraphic"/>
  </filter>
  <g id="solid" filter="url(#filter_shadow)">
   <g id="lower">
    <path class="top"   d="M 0,-10 h 999 V 0 H 10"/>
    <path class="left"  d="M 0,0 l -6,8 v -10 l 6,-8"/>
    <path class="right" d="M 0,0 l -6,8 h 999 l 6,-8 H 10"/>
   </g>
   <g id="upper" transform="translate(-0.09,0.12)">
    <path class="top"   d="M 16,-8 h -10 v -999 h 10 z"/>
    <path class="left"  d="M 0,0 l 6,-8 v -999 l -6,8 V -10"/>
    <path class="right" d="M 0,0 l 6,-8 h 10 l -6,8"/>
   </g>
  </g>
  <radialGradient id="grad_mask">
   <stop offset="80%" stop-color="#ffffff"/>
   <stop offset="85%" stop-color="#cccccc"/>
   <stop offset="99%" stop-color="#000000"/>
  </radialGradient>
  <mask id="mask">
   <ellipse cx="280" cy="47" rx="400" ry="300" fill="url(#grad_mask)"/>
  </mask>
 </defs>
 <circle cx="0" cy="0" r="99999" fill="#ffffff"/>
 <g mask="url(#mask)">
  <g stroke="#000000" stroke-width="0.1" stroke-linejoin="bevel" stroke-linecap="round" transform="matrix(4,-2 3,3 0,0)">
   <use xlink:href="#solid" fill="#ff6666"/>
   <use xlink:href="#solid" fill="#ffcc00" transform="translate(20,20)"/>
   <use xlink:href="#solid" fill="#00cc00" transform="translate(40,40)"/>
   <use xlink:href="#solid" fill="#0099ff" transform="translate(60,60)"/>
   <use xlink:href="#solid" fill="#cc66ff" transform="translate(80,80)"/>
  </g>
 </g>
</svg>
